<svg width="17" height="16" viewBox="0 0 17 16" fill="none" xmlns="http://www.w3.org/2000/svg">
<g clip-path="url(#clip0_19_1146)">
<path d="M16.8086 14.95L12.7208 11.1034C13.9056 9.76465 14.4964 8.0475 14.3703 6.30919C14.2442 4.57088 13.4109 2.94524 12.0437 1.77045C10.6766 0.595655 8.88084 -0.0378381 7.03006 0.00174965C5.17928 0.0413374 3.41597 0.750958 2.10693 1.98299C0.797893 3.21503 0.043921 4.87462 0.00185901 6.61653C-0.040203 8.35844 0.632883 10.0486 1.8811 11.3353C3.12931 12.622 4.85656 13.4063 6.70351 13.525C8.55047 13.6437 10.3749 13.0876 11.7974 11.9725L15.8844 15.8199C15.9451 15.877 16.0171 15.9223 16.0964 15.9532C16.1757 15.9841 16.2607 16 16.3465 16C16.4323 16 16.5173 15.9841 16.5966 15.9532C16.6759 15.9223 16.7479 15.877 16.8086 15.8199C16.8693 15.7627 16.9174 15.6949 16.9503 15.6203C16.9831 15.5457 17 15.4657 17 15.3849C17 15.3042 16.9831 15.2242 16.9503 15.1496C16.9174 15.0749 16.8693 15.0071 16.8086 14.95ZM1.32432 6.77888C1.32432 5.68467 1.66907 4.61502 2.31498 3.70521C2.96089 2.7954 3.87895 2.08629 4.95306 1.66755C6.02717 1.24882 7.20909 1.13925 8.34935 1.35273C9.48962 1.5662 10.537 2.09311 11.3591 2.86684C12.1812 3.64057 12.741 4.62636 12.9679 5.69955C13.1947 6.77275 13.0783 7.88514 12.6334 8.89607C12.1884 9.90699 11.435 10.771 10.4683 11.379C9.50167 11.9869 8.36517 12.3113 7.20256 12.3113C5.64409 12.3097 4.14994 11.7263 3.04793 10.6891C1.94592 9.65195 1.32605 8.24569 1.32432 6.77888Z" fill="#EB282E"/>
</g>
<defs>
<clipPath id="clip0_19_1146">
<rect width="17" height="16" fill="white"/>
</clipPath>
</defs>
</svg>
