<svg width="68" height="60" viewBox="0 0 68 60" fill="none" xmlns="http://www.w3.org/2000/svg">
<path d="M67.4547 11.7843L61.8297 2.0634C61.5959 1.65964 61.2365 1.32015 60.7919 1.08299C60.3473 0.845833 59.835 0.720381 59.3125 0.720704H8.6875C8.165 0.720381 7.65272 0.845833 7.20811 1.08299C6.7635 1.32015 6.40413 1.65964 6.17031 2.0634L0.545313 11.7843C0.35145 12.1224 0.250395 12.4945 0.25 12.8718V54.1855C0.25 55.4746 0.842632 56.7108 1.89752 57.6224C2.95242 58.5339 4.38316 59.0459 5.875 59.0459H62.125C63.6168 59.0459 65.0476 58.5339 66.1025 57.6224C67.1574 56.7108 67.75 55.4746 67.75 54.1855V12.8718C67.7496 12.4945 67.6486 12.1224 67.4547 11.7843ZM47.2398 34.0329C46.9786 34.2589 46.6685 34.4381 46.327 34.5604C45.9856 34.6827 45.6196 34.7457 45.25 34.7457C44.8804 34.7457 44.5144 34.6827 44.173 34.5604C43.8315 34.4381 43.5214 34.2589 43.2602 34.0329L36.8125 28.4586V46.8949C36.8125 47.5394 36.5162 48.1575 35.9887 48.6133C35.4613 49.069 34.7459 49.3251 34 49.3251C33.2541 49.3251 32.5387 49.069 32.0113 48.6133C31.4838 48.1575 31.1875 47.5394 31.1875 46.8949V28.4586L24.7398 34.0329C24.4785 34.2587 24.1683 34.4378 23.8269 34.56C23.4855 34.6822 23.1195 34.7451 22.75 34.7451C22.3805 34.7451 22.0145 34.6822 21.6731 34.56C21.3317 34.4378 21.0215 34.2587 20.7602 34.0329C20.4988 33.8071 20.2916 33.5391 20.1501 33.2441C20.0087 32.9491 19.9359 32.6329 19.9359 32.3135C19.9359 31.9942 20.0087 31.678 20.1501 31.383C20.2916 31.088 20.4988 30.82 20.7602 30.5942L32.0102 20.8733C32.2714 20.6473 32.5815 20.4681 32.923 20.3458C33.2644 20.2235 33.6304 20.1605 34 20.1605C34.3696 20.1605 34.7356 20.2235 35.077 20.3458C35.4185 20.4681 35.7286 20.6473 35.9898 20.8733L47.2398 30.5942C47.5013 30.8199 47.7088 31.0879 47.8503 31.3829C47.9919 31.6779 48.0647 31.9942 48.0647 32.3135C48.0647 32.6329 47.9919 32.9491 47.8503 33.2442C47.7088 33.5392 47.5013 33.8072 47.2398 34.0329ZM7.61172 10.4416L10.4242 5.58114H57.5758L60.3883 10.4416H7.61172Z" fill="#EB282E"/>
</svg>
